<svg xmlns="http://www.w3.org/2000/svg" width="0" height="0">
  <symbol viewBox="0 0 448 512" id="save">
    <path fill="#CCC" d="M64 32C28.7 32 0 60.7 0 96V416c0 35.3 28.7 64 64 64H384c35.3 0 64-28.7 64-64V173.3c0-17-6.7-33.3-18.7-45.3L352 50.7C340 38.7 323.7 32 306.7 32H64zm0 96c0-17.7 14.3-32 32-32H288c17.7 0 32 14.3 32 32v64c0 17.7-14.3 32-32 32H96c-17.7 0-32-14.3-32-32V128zM224 416c-35.3 0-64-28.7-64-64s28.7-64 64-64s64 28.7 64 64s-28.7 64-64 64z"/>
  </symbol>
  <symbol viewBox="0 0 512 512" id="more">
    <path fill="#CCC" d="M144 208C126.3 208 112 222.2 112 239.1C112 257.7 126.3 272 144 272s31.1-14.25 31.1-32S161.8 208 144 208zM256 207.1c-17.75 0-31.1 14.25-31.1 32s14.25 31.1 31.1 31.1s31.1-14.25 31.1-31.1S273.8 207.1 256 207.1zM368 208c-17.75 0-31.1 14.25-31.1 32s14.25 32 31.1 32c17.75 0 31.99-14.25 31.99-32C400 222.2 385.8 208 368 208zM256 31.1c-141.4 0-255.1 93.12-255.1 208c0 47.62 19.91 91.25 52.91 126.3c-14.87 39.5-45.87 72.88-46.37 73.25c-6.624 7-8.373 17.25-4.624 26C5.818 474.2 14.38 480 24 480c61.49 0 109.1-25.75 139.1-46.25c28.87 9 60.16 14.25 92.9 14.25c141.4 0 255.1-93.13 255.1-207.1S397.4 31.1 256 31.1zM256 400c-26.75 0-53.12-4.125-78.36-12.12l-22.75-7.125L135.4 394.5c-14.25 10.12-33.87 21.38-57.49 29c7.374-12.12 14.37-25.75 19.87-40.25l10.62-28l-20.62-21.87C69.81 314.1 48.06 282.2 48.06 240c0-88.25 93.24-160 207.1-160s207.1 71.75 207.1 160S370.8 400 256 400z"/>
  </symbol>
  <symbol viewBox="0 0 512 512" id="orchard">
    <path fill="#CCC" d="M496 271.1C496 404.3 388.3 512 256 512s-240-107.7-240-240S123.7 31.1 256 31.1c17.55 0 34.8 2.515 51.75 6.255C325.3 15.14 352.7 0 384 0h80C472.8 0 480 7.162 480 16v16c0 53.02-42.98 96-96 96h-80C295.2 128 288 120.8 288 112V96c0-4.396 .7227-8.596 1.295-12.84C278.3 81.25 267.2 80 256 80c-105.9 0-192 86.13-192 192s86.13 192 192 192s192-86.13 192-192c0-31.06-7.156-60.67-21.31-88c-6.094-11.78-1.5-26.25 10.28-32.34c11.81-6.172 26.28-1.484 32.34 10.28C486.8 195.7 496 233.7 496 271.1z"/>
  </symbol>
</svg>
